<?xml version="1.0" encoding="UTF-8" standalone="no"?>
<!-- Christopher J. Fynn -->
<svg
   xmlns:dc="http://purl.org/dc/elements/1.1/"
   xmlns:cc="http://creativecommons.org/ns#"
   xmlns:rdf="http://www.w3.org/1999/02/22-rdf-syntax-ns#"
   xmlns:svg="http://www.w3.org/2000/svg"
   xmlns="http://www.w3.org/2000/svg"
   xmlns:sodipodi="http://sodipodi.sourceforge.net/DTD/sodipodi-0.dtd"
   xmlns:inkscape="http://www.inkscape.org/namespaces/inkscape"
   version="1.0"
   id="Layer_1"
   width="1050"
   height="1050"
   viewBox="0 0 1011.23 992.681"
   overflow="visible"
   enable-background="new 0 0 1011.23 992.681"
   xml:space="preserve"
   sodipodi:version="0.32"
   inkscape:version="0.46"
   sodipodi:docname="OM_MANI_PADME_HUM-bw.svg"
   inkscape:output_extension="org.inkscape.output.svg.inkscape"
   style="overflow:visible"><metadata
   id="metadata10"><rdf:RDF><cc:Work
       rdf:about=""><dc:format>image/svg+xml</dc:format><dc:type
         rdf:resource="http://purl.org/dc/dcmitype/StillImage" /><dc:title>OM MANI PADME HUM HRI</dc:title><dc:creator><cc:Agent><dc:title>Christopher J. Fynn</dc:title></cc:Agent></dc:creator><dc:description>The mantra of Avalokiteshvara, OM MA-NI PAD-ME HUM HRI,  in Tibetan script. </dc:description><dc:subject><rdf:Bag><rdf:li>Om Mani Padme Hum</rdf:li></rdf:Bag></dc:subject><cc:license
         rdf:resource="http://creativecommons.org/licenses/by-sa/3.0/" /></cc:Work><cc:License
       rdf:about="http://creativecommons.org/licenses/by-sa/3.0/"><cc:permits
         rdf:resource="http://creativecommons.org/ns#Reproduction" /><cc:permits
         rdf:resource="http://creativecommons.org/ns#Distribution" /><cc:requires
         rdf:resource="http://creativecommons.org/ns#Notice" /><cc:requires
         rdf:resource="http://creativecommons.org/ns#Attribution" /><cc:permits
         rdf:resource="http://creativecommons.org/ns#DerivativeWorks" /><cc:requires
         rdf:resource="http://creativecommons.org/ns#ShareAlike" /></cc:License></rdf:RDF></metadata><defs
   id="defs8"><inkscape:perspective
     sodipodi:type="inkscape:persp3d"
     inkscape:vp_x="0 : 496.34052 : 1"
     inkscape:vp_y="0 : 1000 : 0"
     inkscape:vp_z="1011.23 : 496.34052 : 1"
     inkscape:persp3d-origin="505.61499 : 330.89368 : 1"
     id="perspective12" /></defs><sodipodi:namedview
   inkscape:window-height="968"
   inkscape:window-width="1280"
   inkscape:pageshadow="2"
   inkscape:pageopacity="0.0"
   guidetolerance="10.0"
   gridtolerance="10.0"
   objecttolerance="10.0"
   borderopacity="1.0"
   bordercolor="#666666"
   pagecolor="#ffffff"
   id="base"
   showgrid="false"
   showguides="false"
   inkscape:zoom="0.46540629"
   inkscape:cx="204.80256"
   inkscape:cy="496.34052"
   inkscape:window-x="-4"
   inkscape:window-y="-4"
   inkscape:current-layer="Layer_1" />
<g
   id="g3"
   transform="matrix(0.928378,0,0,0.9145321,35.178499,39.317146)">
	<path
   d="M 322.27,482.91 C 326.66,458.98 334.23,428.22 347.17,406.25 C 361.58,381.84 381.35,358.89 401.86,343.26 L 309.09,185.55 C 300.79,171.39 286.14,155.76 273.93,149.9 C 260.75,142.58 247.07,139.16 232.91,139.16 C 220.22,139.16 180.18,167.48 173.83,172.36 C 164.56,178.71 94.73,230.96 74.22,250.49 C 74.22,296.87 48.34,350.59 48.34,396.97 C 48.34,425.78 57.62,452.64 91.31,472.17 C 100.59,477.54 121.59,482.91 135.75,482.91 L 322.27,482.91 L 322.27,482.91 z M 663.58,405.27 C 677.25,428.22 686.039,458.01 691.41,482.91 L 875,482.91 C 922.369,482.91 961.43,442.38 961.43,396 C 961.43,349.61 937.991,281.74 935.551,248.53 C 883.311,212.4 836.92,139.16 777.84,139.16 C 747.07,139.16 718.27,154.78 700.69,184.57 L 620.12,323.73 C 613.29,333.98 609.87,338.38 608.891,342.28 C 629.4,358.89 648.93,380.86 663.58,405.27 L 663.58,405.27 L 663.58,405.27 z M 662.6,586.909 C 647.95,611.329 628.42,631.35 610.84,649.409 C 610.84,651.86 613.289,658.69 619.151,670.409 L 699.71,808.589 C 716.312,836.431 747.071,854.98 777.841,854.98 C 834.972,854.98 881.351,779.781 934.571,744.63 C 936.53,697.271 962.411,644.53 962.411,597.169 C 962.411,551.761 928.722,510.249 875.981,510.249 L 689.459,510.249 C 686.529,536.13 675.789,565.919 662.6,586.909 L 662.6,586.909 L 662.6,586.909 z M 348.15,587.89 C 333.99,565.919 326.66,537.111 321.29,510.249 L 135.75,510.249 C 121.59,510.249 101.57,517.579 91.31,522.95 C 56.65,541.499 48.34,567.38 48.34,597.169 C 49.32,641.601 73.73,692.87 73.73,738.28 C 73.73,742.68 77.15,746.579 80.08,749.51 C 132.82,787.6 176.27,853.52 233.89,854.979 C 261.72,853.999 293.46,836.43 309.09,808.588 L 400.88,651.859 C 380.38,634.28 361.33,610.351 348.15,587.89 L 348.15,587.89 L 348.15,587.89 z M 505.86,678.71 C 479.01,678.71 450.2,672.36 426.27,663.089 L 333.5,822.749 C 322.27,842.28 317.39,858.89 317.39,873.53 C 317.39,946.78 438.97,975.589 505.86,992.68 C 572.76,968.26 688.481,963.869 691.41,870.119 C 691.41,857.908 683.109,835.449 675.789,822.748 L 598.641,681.64 C 592.289,672.361 586.43,666.021 583.01,662.111 C 559.57,672.36 532.721,678.71 505.86,678.71 L 505.86,678.71 L 505.86,678.71 z M 505.86,314.45 C 533.699,314.45 559.57,322.75 583.01,330.08 C 586.43,329.101 593.27,322.75 598.641,311.52 L 676.76,170.41 C 684.09,156.74 690.43,136.23 690.43,125.98 C 690.43,40.53 601.571,36.62 532.721,11.72 C 524.42,8.79 511.23,0 505.86,0 C 497.56,0 485.36,8.3 476.08,11.72 C 410.16,36.13 320.32,42.48 320.32,120.61 C 320.32,133.3 324.22,154.78 333.5,171.39 L 412.11,311.52 C 418.46,321.78 424.32,328.12 426.27,330.08 C 450.2,322.75 479.98,314.45 505.86,314.45 L 505.86,314.45 L 505.86,314.45 z M 338.87,497.07 C 338.87,588.87 412.11,665.04 505.86,665.04 C 595.709,665.04 672.86,588.87 672.86,497.07 C 672.86,405.27 598.641,330.08 505.86,330.08 C 414.07,330.08 338.87,403.32 338.87,497.07 L 338.87,497.07 L 338.87,497.07 z M 505.86,703.12 C 528.811,703.12 546.879,698.239 574.709,692.87 C 579.109,701.169 598.641,726.069 598.641,740.229 C 598.641,744.629 598.641,750.489 592.289,750.489 C 588.381,750.489 583.99,748.53 581.06,745.61 C 579.109,750.489 578.128,754.88 578.128,759.77 C 578.128,771.479 584.48,783.69 599.608,784.668 L 610.838,780.76 L 608.889,791.02 C 608.889,799.319 617.188,808.588 624.518,815.43 C 630.379,808.588 630.858,801.27 634.768,794.918 C 646.979,801.27 667.479,840.328 667.479,867.189 C 667.479,873.529 664.559,887.689 657.229,888.668 C 654.299,887.689 651.368,879.389 648.928,877.439 C 630.379,878.418 618.168,890.619 618.168,901.369 C 618.168,908.199 621.588,913.568 629.398,918.459 L 629.398,921.869 C 623.537,918.939 610.837,916.498 601.568,916.498 C 591.308,916.498 587.408,921.869 587.408,929.199 C 587.408,932.129 589.357,939.449 589.357,939.449 C 589.357,939.449 583.007,938.478 579.107,938.478 C 566.898,938.478 554.197,941.408 542.968,948.728 C 542.968,952.638 547.366,960.939 547.366,960.939 C 547.366,960.939 543.946,959.959 541.997,959.959 C 527.347,959.959 516.116,978.52 505.857,987.789 C 496.587,977.539 484.377,959.959 468.747,959.959 C 466.797,959.959 462.407,961.908 462.407,961.908 C 462.407,961.908 466.797,952.638 466.797,947.748 C 449.217,941.408 437.017,938.478 420.407,937.498 C 420.407,937.498 423.337,931.148 423.337,929.199 C 423.337,920.898 416.017,916.498 408.207,916.498 C 398.927,916.498 380.377,920.898 380.377,920.898 C 380.377,920.898 393.557,909.179 393.557,901.369 C 392.577,890.619 377.927,878.418 362.797,878.418 C 360.357,879.389 357.427,886.719 352.537,886.719 C 345.217,886.719 343.267,874.51 343.267,867.19 C 344.237,842.28 362.797,803.219 375.977,795.899 C 376.957,803.219 378.907,807.62 386.227,813.479 C 394.537,806.149 400.877,798.338 400.877,788.569 C 400.877,786.62 399.907,783.69 399.907,781.739 C 402.837,782.71 406.737,783.69 409.177,783.69 C 422.367,783.69 431.647,767.088 431.647,755.86 C 431.647,749.51 428.717,744.63 422.367,744.63 C 417.477,744.63 413.087,750.489 413.087,750.489 C 412.107,747.559 411.137,744.63 411.137,742.19 C 411.137,733.399 415.037,723.629 420.407,714.36 L 434.567,690.919 C 461.43,697.271 480.96,703.12 505.86,703.12 L 505.86,703.12 L 505.86,703.12 z M 505.86,289.06 C 479.01,289.06 462.41,295.9 435.55,302.249 C 431.65,292.969 411.14,269.039 411.14,253.909 C 411.14,248.529 413.09,244.629 419.44,244.629 C 422.37,244.629 425.3,245.609 426.76,247.559 C 431.65,241.699 432.62,235.349 432.62,229.979 C 432.62,217.769 423.34,208.499 411.14,208.499 C 407.72,208.499 402.84,209.469 399.91,210.449 C 399.91,195.309 394.54,190.919 384.28,178.709 C 380.38,185.549 377.93,190.919 376.96,199.219 C 363.77,190.919 343.27,152.829 342.78,126.949 C 342.78,119.629 343.27,105.469 352.06,105.469 C 356.45,107.419 359.38,112.789 362.8,115.719 C 377.93,115.719 391.61,102.539 392.58,91.799 C 392.58,83.979 389.65,79.589 382.33,76.659 L 381.35,73.239 C 385.26,74.219 398.93,78.609 408.21,78.609 C 416.02,78.609 423.34,74.219 423.34,63.959 C 422.37,60.059 421.39,58.109 419.44,54.689 C 423.34,55.659 426.76,55.659 430.67,55.659 C 442.88,55.659 454.59,51.759 466.8,45.409 C 466.8,42.479 464.85,37.109 463.38,33.199 L 466.8,33.199 C 482.43,33.199 496.59,14.649 505.86,5.369 C 515.141,15.619 528.32,35.159 542,35.159 L 546.879,32.229 L 543.949,45.409 C 559.57,53.709 573.73,55.659 588.381,55.659 L 585.449,63.959 C 585.449,74.219 594.73,77.639 603.029,77.639 C 609.869,77.639 623.539,75.679 629.4,73.239 C 621.099,79.589 617.189,83.979 617.189,92.769 C 617.189,102.539 632.82,115.719 647.949,115.719 C 650.4,114.749 652.349,106.439 657.23,106.439 C 665.529,106.439 666.509,119.629 666.509,125.979 C 666.509,151.859 647.948,191.889 634.769,199.219 C 632.82,190.919 630.38,183.589 623.539,179.689 C 616.221,185.549 610.84,192.869 609.869,201.169 L 611.82,212.399 C 606.939,210.449 603.029,209.469 599.609,209.469 C 584.48,209.469 578.129,217.769 577.15,231.929 C 577.15,237.299 579.109,242.679 581.06,246.579 C 581.06,246.579 588.38,243.649 592.289,243.649 C 596.68,243.649 599.609,245.609 599.609,250.979 C 599.609,266.109 577.15,298.339 574.709,300.289 C 547.369,294.92 528.811,289.06 505.86,289.06 L 505.86,289.06 L 505.86,289.06 z M 132.82,237.3 C 147.95,228.03 159.67,214.84 162.6,203.12 C 166.51,205.57 177.25,210.45 180.18,210.45 C 194.34,210.45 196.78,185.55 200.69,177.73 C 203.62,189.94 208.99,199.22 220.22,199.22 C 228.52,199.22 239.75,191.89 247.07,182.62 C 247.07,178.71 243.17,175.29 242.19,171.39 C 244.15,167.48 248.05,166.02 251.47,166.02 C 257.33,166.02 261.72,168.46 265.63,171.39 C 287.11,185.55 310.06,219.73 310.06,233.4 C 310.06,233.4 301.76,232.42 296.88,232.42 C 292.48,232.42 287.6,232.42 287.11,234.37 C 289.56,245.61 297.86,253.91 310.06,261.23 C 305.67,269.04 298.83,274.41 298.83,283.69 C 298.83,293.94 313.97,306.15 327.64,306.15 C 327.64,299.32 329.59,291.99 336.92,291.99 C 352.54,291.99 364.75,330.08 370.61,339.36 C 351.08,358.89 338.38,372.31 325.69,393.07 C 312.5,414.31 309.09,433.84 301.76,461.67 L 276.86,462.65 C 262.7,462.16 242.19,457.52 242.19,448.73 C 242.19,445.8 244.15,441.41 250,437.5 C 246.1,430.18 236.82,424.8 227.54,424.8 C 220.22,424.8 211.92,427.25 209.97,434.08 L 205.08,446.78 C 201.66,440.43 196.78,437.5 189.46,437.5 C 184.09,437.5 178.23,438.48 171.88,441.41 C 171.88,447.75 177.25,454.59 181.16,458.01 C 177.25,461.91 167.97,463.87 156.25,463.87 C 135.75,463.87 89.36,446.78 89.36,436.52 C 89.36,434.08 92.78,431.15 103.03,430.18 C 104.98,424.8 108.89,418.94 108.89,413.57 C 108.89,399.41 100.59,389.65 89.36,389.65 C 84.48,389.65 82.04,390.14 78.13,393.07 C 83.01,386.72 96.68,372.56 96.68,361.82 C 96.68,356.93 87.41,349.61 81.06,347.66 C 88.38,334.47 92.78,326.17 94.73,306.64 C 91.31,304.2 88.38,302.25 82.04,302.25 C 88.38,299.32 92.78,297.36 92.78,290.04 C 92.78,278.32 86.43,264.16 79.11,250.98 C 92.78,247.56 124.52,246.58 128.42,229 L 132.82,237.3 L 132.82,237.3 z M 685.061,600.101 C 697.76,579.589 700.69,558.111 709.971,531.249 L 734.869,531.249 C 750.98,531.249 761.721,535.159 769.539,544.431 C 765.629,547.851 760.75,551.761 760.26,555.66 C 763.68,563.961 774.91,570.31 784.18,570.31 C 795.41,570.31 801.76,560.06 803.721,547.851 C 809.09,550.781 812.991,556.64 819.34,556.64 C 825.689,556.64 832.52,552.73 838.869,552.73 C 837.9,545.41 833.5,538.57 828.619,535.16 C 833.5,531.25 842.779,531.25 853.029,531.25 C 870.609,531.25 891.609,535.16 907.72,542.48 C 912.109,545.41 921.39,551.761 921.39,556.64 C 909.179,562.011 899.91,566.41 899.91,579.589 C 899.91,589.839 905.769,604.489 916.019,604.489 C 921.39,604.489 927.74,603.03 933.599,601.069 C 933.599,601.069 915.038,620.61 915.038,630.86 C 915.038,638.18 920.409,643.549 928.72,645.51 C 921.39,656.739 916.019,670.408 916.019,687.01 C 919.439,689.94 928.72,690.918 928.72,690.918 C 928.72,690.918 921.39,700.189 921.39,703.119 C 921.39,714.838 927.74,732.908 930.669,742.68 C 919.439,743.649 886.23,751.95 885.259,766.11 C 882.329,760.739 879.89,755.86 876.958,755.86 C 862.8,767.089 853.028,777.339 846.198,791.02 C 841.8,787.6 834.479,780.76 831.55,780.76 C 818.359,780.76 810.06,816.889 810.06,816.889 C 809.089,802.248 802.74,793.94 790.529,793.94 C 783.209,793.94 769.539,800.29 762.699,811.52 C 763.679,816.409 767.58,821.78 767.58,824.709 C 767.58,826.168 764.65,828.119 761.721,828.119 C 731.45,828.119 700.69,774.408 699.709,758.789 C 699.709,758.789 715.34,760.738 721.199,760.738 C 711.92,746.578 716.31,733.398 699.709,730.959 C 705.08,727.049 710.939,714.838 710.939,711.43 C 708.99,696.289 696.779,687.989 682.13,687.989 C 683.109,688.96 683.109,691.889 683.109,692.87 C 683.109,697.27 680.179,702.149 677.25,702.149 C 675.789,702.149 671.879,701.169 670.9,700.19 C 658.699,692.87 644.05,665.04 639.65,655.76 C 658.699,634.28 671.879,621.579 685.061,600.101 L 685.061,600.101 L 685.061,600.101 z M 685.061,393.07 C 673.831,371.58 658.7,360.84 638.68,337.4 L 652.35,315.43 C 659.67,305.18 664.561,291.99 676.76,291.99 C 680.18,294.92 683.11,300.29 683.11,306.15 C 695.811,306.15 710.94,294.92 710.94,282.71 C 708.01,276.37 705.081,266.11 698.731,262.21 C 702.641,261.23 707.04,261.23 708.01,260.25 C 714.36,253.91 715.34,243.65 720.221,235.351 C 719.241,233.401 714.36,233.401 712.901,233.401 C 707.04,233.401 704.59,234.371 698.731,236.331 C 702.641,211.431 732.43,166.021 760.26,166.021 C 762.699,166.021 766.61,166.991 767.58,170.411 C 765.629,175.291 763.68,179.691 763.68,182.621 C 763.68,189.941 779.301,201.171 790.53,201.171 C 797.37,195.311 802.741,188.961 807.13,178.711 C 812.021,188.961 816.411,211.431 832.521,213.381 C 835.941,211.431 842.781,206.541 845.222,204.101 C 854.501,215.821 862.802,227.051 876.96,236.33 C 879.892,235.351 883.312,232.42 885.261,226.07 C 888.191,243.65 912.111,250.49 929.691,250.49 C 927.252,258.79 923.341,276.37 923.341,288.09 C 923.341,293.94 927.251,298.34 928.722,303.22 C 928.722,303.22 924.322,302.25 922.37,302.25 C 919.44,302.25 917.001,303.22 915.04,304.2 C 915.04,310.55 921.392,347.66 928.722,348.63 C 921.392,350.59 914.072,355.96 914.072,363.28 C 914.072,373.53 929.691,386.72 934.572,391.11 C 928.722,389.65 926.271,389.65 921.392,389.65 C 909.181,389.65 900.88,397.95 900.88,413.57 C 900.88,417.48 902.841,423.83 907.722,431.15 C 911.142,431.15 921.392,431.15 921.392,436.52 C 917.972,459.96 869.63,464.36 853.521,464.36 C 842.781,464.36 831.552,461.91 826.662,459.96 C 834.482,453.61 837.902,448.73 838.871,441.41 C 836.922,440.43 828.621,437.5 820.322,437.5 C 813.972,437.5 807.131,440.43 803.722,445.8 C 801.761,436.52 797.37,423.83 785.161,423.83 C 773.931,423.83 765.63,431.15 758.311,439.45 C 769.54,439.45 765.629,445.31 769.54,450.68 C 760.751,458.01 750.001,461.91 733.892,462.89 L 708.992,462.89 C 701.66,435.06 696.779,415.53 685.061,393.07 L 685.061,393.07 L 685.061,393.07 z M 325.69,601.069 C 337.9,621.579 351.08,635.249 371.1,655.76 C 362.8,661.129 352.06,703.119 336.92,703.119 C 326.66,703.119 330.57,688.959 323.25,688.959 C 312.99,688.959 300.79,699.219 300.79,710.449 C 300.79,717.769 304.69,725.099 311.04,730.959 L 302.74,733.398 C 295.41,739.259 295.41,749.509 288.58,757.808 C 293.46,759.769 295.41,760.738 297.86,760.738 C 302.74,760.738 307.13,759.769 310.06,757.808 C 308.11,787.599 276.86,821.779 250,828.119 C 245.12,827.148 243.17,825.68 243.17,822.748 C 243.17,819.818 246.1,815.43 248.05,812.498 C 243.17,800.289 230.47,793.939 220.22,793.939 C 208.01,793.939 202.64,802.248 202.64,811.519 L 198.73,815.429 C 194.83,808.587 192.39,780.759 179.2,780.759 C 175.79,780.759 166.51,784.667 165.53,790.038 C 157.23,776.368 148.44,767.087 131.84,755.858 C 129.89,757.807 127.45,760.737 125.49,767.087 C 122.56,749.509 95.71,747.558 81.06,742.679 L 78.13,739.259 C 79.11,739.259 79.11,737.298 80.08,736.327 C 83.5,728.028 88.38,714.837 88.38,705.567 C 88.38,703.118 84.48,693.848 80.08,690.917 C 89.36,690.917 94.73,689.938 95.71,688.958 C 94.73,670.407 88.38,657.708 82.04,645.509 C 88.38,643.548 95.71,638.179 96.68,630.859 C 94.73,619.629 80.08,608.398 75.2,603.029 L 77.15,600.099 C 81.06,603.519 83.5,603.519 89.36,604.488 C 102.06,603.519 108.89,592.769 108.89,580.568 C 108.89,574.218 106.94,568.359 104.01,563.959 C 103.03,564.939 100.59,565.918 98.64,565.918 C 92.78,565.918 89.36,560.059 89.36,555.658 C 89.36,538.088 146.98,530.269 157.23,530.269 C 165.53,530.269 174.81,531.248 181.16,534.179 C 176.27,540.529 172.86,545.408 170.9,551.759 C 179.2,552.728 184.09,556.638 190.43,556.638 C 196.78,556.638 201.66,553.708 205.08,547.849 C 208.99,559.078 212.9,570.308 225.59,570.308 C 236.82,570.308 244.15,563.958 251.47,555.658 C 245.12,548.828 242.19,546.388 242.19,544.429 C 242.19,533.199 264.65,533.199 274.91,533.199 C 284.18,533.199 294.44,534.179 301.76,534.179 C 310.06,561.03 313.97,579.589 325.69,601.069 L 325.69,601.069 L 325.69,601.069 z M 918.459,498.05 L 918.459,494.14 C 944.83,484.86 958.5,472.17 974.131,447.75 C 991.221,448.73 1007.82,482.91 1011.231,497.07 C 1006.84,511.72 992.68,544.431 976.081,545.409 C 956.551,520.999 945.811,510.249 918.459,498.05 L 918.459,498.05 L 918.459,498.05 z M 955.57,497.07 C 964.359,503.419 972.66,512.691 979.98,519.53 C 990.24,519.53 1001.47,507.319 1003.91,497.07 C 1000.49,485.84 990.24,474.61 980.959,474.61 C 973.641,482.42 963.379,489.75 955.57,497.07 L 955.57,497.07 L 955.57,497.07 z M 92.78,499.999 L 92.78,494.14 C 64.95,482.91 53.23,472.17 34.67,447.75 C 18.56,447.75 3.91,482.91 0,497.07 C 3.91,510.739 18.56,544.431 35.65,545.409 C 53.23,522.95 65.92,509.28 92.78,499.999 L 92.78,499.999 L 92.78,499.999 z M 55.67,497.07 C 46.39,503.419 37.11,511.72 31.74,519.53 C 21.49,519.53 10.26,507.319 5.86,497.07 C 9.28,486.82 21.49,475.59 31.74,475.59 C 38.09,481.44 45.9,489.75 55.67,497.07 L 55.67,497.07 L 55.67,497.07 z M 296.88,853.521 L 301.76,856.931 C 300.79,863.281 298.83,870.12 298.83,877.441 C 299.81,894.041 304.69,909.181 312.99,929.201 C 307.13,937.012 295.41,938.48 282.23,938.48 C 271,938.48 257.33,936.031 250.49,935.06 C 241.22,924.8 226.57,902.339 226.57,885.74 C 226.57,883.791 227.54,881.351 228.52,879.39 C 257.33,878.419 274.91,871.089 296.88,853.521 L 296.88,853.521 L 296.88,853.521 z M 280.28,886.72 C 271,890.62 259.28,894.04 249.03,895.999 C 247.07,895.999 246.1,899.899 246.1,903.319 C 246.1,912.6 251.47,927.729 253.42,930.18 L 257.33,930.18 C 271,930.18 282.23,924.799 287.6,918.94 C 285.16,909.181 282.23,896.97 280.28,886.72 L 280.28,886.72 L 280.28,886.72 z M 709.971,137.21 L 715.34,139.16 C 734.869,121.09 754.401,116.7 782.231,114.75 C 784.18,111.82 784.18,108.4 784.18,105.47 C 784.18,88.87 766.61,68.36 758.311,59.08 C 750.981,56.15 737.801,55.66 726.571,55.66 C 714.36,55.66 703.62,60.06 697.76,65.43 C 708.01,83.5 711.92,99.12 711.92,115.72 C 711.92,123.05 710.939,129.88 709.971,137.21 L 709.971,137.21 L 709.971,137.21 z M 730.471,108.4 L 723.151,74.22 C 726.571,67.38 736.821,64.94 750.001,64.94 L 754.401,64.94 C 759.28,72.27 764.651,79.59 764.651,87.89 C 764.651,91.8 763.68,93.26 762.7,97.17 C 750.98,100.1 739.75,102.54 730.471,108.4 L 730.471,108.4 L 730.471,108.4 z M 708.99,855.96 L 713.869,853.521 C 736.82,871.089 754.4,877.441 783.209,880.371 C 784.18,881.351 785.16,883.791 785.16,887.691 C 785.16,902.339 765.629,926.761 758.31,936.031 C 752.449,937.011 739.749,938.48 728.519,938.48 C 715.339,938.48 703.619,936.031 698.73,928.22 C 707.039,909.181 711.919,893.07 712.9,877.441 C 712.9,872.069 710.939,863.28 708.99,855.96 L 708.99,855.96 L 708.99,855.96 z M 730.471,884.771 C 728.52,896 726.571,909.181 723.641,918.941 C 728.52,927.73 743.17,930.181 754.401,930.181 C 759.28,924.8 763.68,915.531 763.68,907.23 C 763.68,903.32 762.7,899.9 761.721,896 C 752.449,895.021 739.75,890.62 730.471,884.771 L 730.471,884.771 L 730.471,884.771 z M 296.88,139.16 L 301.76,138.18 C 299.81,130.37 299.81,124.02 299.81,117.68 C 299.81,100.1 304.69,83.5 312.99,64.94 C 305.67,57.13 295.41,55.66 280.28,55.66 C 270.02,55.66 259.28,56.15 253.42,59.08 C 243.17,69.34 226.57,89.84 226.57,106.44 C 226.57,108.4 226.57,111.33 227.54,112.79 C 257.33,116.7 273.93,122.07 296.88,139.16 L 296.88,139.16 L 296.88,139.16 z M 280.28,107.42 C 271,102.05 257.33,98.14 249.03,98.14 C 247.07,94.24 247.07,90.82 247.07,86.91 C 247.07,79.59 250.49,71.29 255.38,63.96 L 260.75,63.96 C 272.95,63.96 283.21,67.38 287.11,74.22 C 284.18,83.98 282.23,98.14 280.28,107.42 L 280.28,107.42 L 280.28,107.42 z M 496.59,114.75 C 490.24,102.54 474.13,82.521 461.43,82.521 C 454.59,82.521 446.29,99.121 445.32,102.051 C 446.29,102.541 447.27,103.521 448.25,103.521 C 449.22,103.521 452.15,102.051 453.13,101.071 C 471.68,102.541 494.63,120.611 502.93,132.321 L 505.86,131.351 L 509.77,120.611 C 514.161,106.441 530.77,107.421 548.34,102.541 C 564.459,97.171 584.481,83.501 584.481,74.711 C 565.92,75.681 528.811,85.941 519.051,93.261 L 500.98,123.051 L 496.59,114.75 L 496.59,114.75 z M 500.98,48.83 C 487.31,48.83 479.01,69.34 479.01,76.66 C 479.01,86.91 492.68,92.77 500.98,92.77 C 514.16,92.77 522.471,76.66 522.471,67.38 C 521.49,55.66 507.82,48.83 500.98,48.83 L 500.98,48.83 L 500.98,48.83 z M 489.26,60.06 C 500.49,60.06 514.16,69.34 514.16,76.66 C 514.16,79.59 513.189,81.54 511.23,84.96 C 502.929,83.5 488.29,73.24 488.29,65.43 L 489.26,60.06 L 489.26,60.06 z M 486.33,135.25 L 476.08,150.88 C 476.08,153.81 477.06,154.78 479.01,154.78 C 479.98,154.78 481.94,153.81 483.4,153.81 C 480.96,162.11 476.08,169.43 473.15,178.71 C 466.8,180.66 463.38,189.94 461.43,197.27 C 463.38,196.29 466.8,194.82 471.68,194.82 C 488.29,195.31 498.54,203.12 498.54,210.45 C 498.54,217.77 487.31,220.7 480.96,220.7 C 454.11,218.75 446.29,204.1 446.29,188.96 C 446.29,176.27 452.15,157.71 460.45,152.83 C 465.82,148.93 471.68,143.55 473.15,135.25 L 448.25,135.25 L 436.04,153.81 C 436.04,155.76 439.95,155.76 440.92,155.76 C 442.88,155.76 443.85,155.76 444.83,158.2 C 437.99,166.99 436.04,185.55 436.04,193.85 C 436.04,218.749 455.57,237.3 471.68,239.26 C 496.59,239.26 504.89,211.43 506.84,201.17 C 505.86,187.01 496.59,176.76 485.36,176.76 C 483.4,176.76 480.96,176.76 480.96,176.76 C 481.94,173.34 490.24,165.04 493.66,161.13 C 506.84,167.48 540.039,226.07 550.301,244.63 C 551.27,246.58 552.25,250.49 555.18,250.49 C 556.651,250.49 560.551,249.51 560.551,247.56 C 560.551,246.58 559.571,245.61 558.6,244.63 L 561.53,173.34 C 561.53,166.02 561.53,161.13 564.46,153.81 C 565.431,148.93 574.71,139.16 574.71,138.18 C 574.71,136.23 574.71,135.25 566.901,135.25 L 552.251,135.25 L 536.632,152.83 C 536.632,153.81 537.601,154.78 538.091,154.78 C 539.071,154.78 540.04,154.78 541.021,153.81 C 548.341,157.71 552.251,215.82 552.251,224.12 L 552.251,235.35 L 546.88,223.14 C 531.741,195.31 535.651,177.73 515.142,153.81 C 520.511,152.83 528.322,144.53 528.322,135.25 L 486.33,135.25 L 486.33,135.25 z M 565.92,538.569 C 583.99,538.569 591.311,523.93 591.311,510.739 C 591.311,501.46 584.481,497.07 577.151,497.07 C 563.481,497.07 545.901,509.28 545.901,520.999 C 545.9,533.2 553.23,538.569 565.92,538.569 L 565.92,538.569 L 565.92,538.569 z M 561.529,507.319 C 570.81,507.319 582.039,512.69 582.039,520.02 C 582.039,526.86 580.08,526.86 577.15,526.86 C 565.92,526.86 556.16,520.02 556.16,511.719 C 556.16,507.319 558.6,507.319 561.529,507.319 L 561.529,507.319 L 561.529,507.319 z M 573.73,434.08 C 549.32,434.08 545.9,460.94 543.949,462.89 C 544.929,477.54 558.599,479.49 569.83,479.49 C 583.01,479.49 589.359,467.28 589.359,456.05 C 589.359,444.34 583.01,434.08 573.73,434.08 L 573.73,434.08 L 573.73,434.08 z M 559.57,445.31 C 568.849,445.31 582.039,450.68 582.039,459.96 C 582.039,463.87 581.06,465.33 579.109,465.33 C 568.849,465.33 555.179,461.91 554.199,453.61 C 556.65,447.75 558.6,445.8 559.57,445.31 L 559.57,445.31 L 559.57,445.31 z M 465.82,426.76 C 463.38,426.76 454.59,442.38 454.59,442.38 C 454.59,445.31 456.55,445.31 459.48,445.31 L 471.68,445.31 C 463.38,449.71 455.57,461.91 451.18,467.28 C 445.32,473.14 442.88,481.44 442.88,485.84 C 443.85,484.86 449.22,482.91 453.13,482.91 C 469.73,482.91 479.98,498.05 492.68,507.32 C 492.68,507.32 493.66,505.371 493.66,504.39 C 491.7,500.98 485.36,489.75 483.4,484.86 C 485.36,475.59 491.22,475.59 500.49,475.59 C 510.26,475.59 524.42,485.84 524.42,499.999 C 524.42,509.28 521.49,515.62 513.19,526.86 C 506.84,521.969 484.38,517.579 470.711,517.579 C 467.781,517.579 463.871,517.579 463.381,520.02 L 451.181,538.088 C 455.571,537.109 459.481,534.18 463.381,534.18 C 485.361,534.18 513.191,538.088 528.812,550.78 L 517.09,550.78 C 506.84,550.78 494.63,566.409 494.63,575.68 C 494.63,581.539 496.59,586.909 496.59,593.748 C 496.59,594.238 495.61,599.119 495.61,601.068 C 500.49,601.068 505.86,591.798 505.86,584.959 C 505.86,576.658 502.93,579.588 502.93,572.27 C 502.93,566.409 506.84,565.918 515.141,565.918 L 525.401,565.918 C 533.7,565.918 539.071,566.408 539.071,573.238 C 539.071,575.679 535.651,579.588 529.79,583.498 C 519.54,584.469 516.12,593.748 515.142,600.1 C 518.072,598.139 527.351,596.19 531.742,596.19 C 548.342,597.169 556.162,610.35 556.652,611.329 C 556.652,599.12 546.881,584.47 537.601,583.499 C 542.001,578.61 547.371,574.22 547.371,568.36 C 547.371,565.919 543.951,561.03 542.973,559.079 L 545.903,552.729 C 545.903,550.78 543.952,550.78 543.952,550.78 L 534.673,550.78 C 530.773,543.46 522.474,532.229 517.093,529.3 C 528.814,517.579 537.603,507.32 539.073,489.75 C 538.093,470.21 523.442,458.01 508.792,457.03 C 495.613,458.01 483.403,465.33 479.013,480.47 C 473.153,472.17 467.783,466.31 457.523,465.33 C 464.853,460.94 470.713,453.61 479.013,448.73 C 484.383,445.8 489.263,445.31 492.683,445.31 L 507.824,445.31 C 512.213,445.31 530.773,439.45 530.773,426.76 L 465.82,426.76 L 465.82,426.76 z M 529.789,423.83 C 530.769,422.85 532.721,420.9 532.721,419.92 C 532.721,415.53 527.35,408.2 521.491,399.41 C 516.12,391.11 513.19,381.84 507.821,374.51 C 503.911,370.12 497.561,369.14 491.7,369.14 C 474.13,369.14 456.55,383.789 456.55,403.32 C 456.55,411.62 469.73,417.97 477.06,417.97 C 481.94,417.97 486.33,413.57 488.29,409.67 C 491.22,406.25 491.22,402.34 491.22,399.41 C 491.22,400.39 486.33,401.37 483.4,401.37 C 479.01,401.37 467.78,396.97 466.8,392.09 C 467.78,386.72 472.66,384.77 477.06,384.77 C 490.24,384.77 505.86,396.97 513.189,404.3 C 521.49,413.57 528.32,419.92 529.789,423.83 L 529.789,423.83 L 529.789,423.83 z M 203.62,713.38 L 224.61,713.38 L 215.34,692.87 C 214.36,691.89 214.36,689.94 214.36,687.989 C 214.36,682.62 217.29,674.319 223.64,671.389 L 229.5,686.52 C 232.91,694.819 246.1,702.149 259.28,702.149 C 273.93,702.149 289.56,687.01 289.56,672.36 C 289.56,657.71 277.84,647.46 263.68,647.46 C 256.35,647.46 249.03,649.899 245.12,651.86 L 257.33,589.839 C 257.33,586.909 254.4,584.47 251.47,584.47 C 250,584.47 249.03,584.96 249.03,587.89 L 195.81,618.65 C 185.55,625 173.83,627.931 161.63,627.931 L 155.28,627.931 L 163.58,640.62 C 163.58,640.62 165.53,643.55 167,644.53 L 190.43,649.899 C 190.43,649.409 187.5,646.479 187.5,643.549 C 187.5,632.319 241.22,602.049 248.05,597.168 C 239.75,619.629 223.64,638.18 222.66,664.059 L 205.08,674.319 L 203.62,671.389 C 200.69,666.989 194.34,665.039 187.5,665.039 C 184.09,665.039 180.18,666.019 177.25,666.988 L 203.62,713.38 L 203.62,713.38 z M 248.05,657.71 C 250.49,655.761 255.38,653.81 260.75,653.81 C 270.02,653.81 277.84,661.13 277.84,671.39 C 277.84,681.64 270.02,691.89 262.7,691.89 C 254.4,691.89 244.15,668.46 244.15,664.06 C 244.15,662.111 244.15,661.13 245.12,659.181 L 248.05,657.71 L 248.05,657.71 z M 831.551,668.46 L 822.27,649.409 L 813.971,663.089 C 812.991,664.06 812.02,665.04 811.039,665.04 C 804.689,665.04 797.369,659.181 792.48,655.761 C 788.58,621.579 746.099,590.82 709.97,573.24 L 708.99,575.681 C 732.91,597.169 761.72,613.771 772.949,646.48 C 767.58,643.55 758.31,640.14 750,640.14 C 739.75,640.14 728.52,648.441 728.52,660.16 C 728.52,676.271 746.1,696.291 763.68,696.291 C 771.981,696.291 780.28,692.871 787.11,681.641 C 789.561,676.272 791.51,668.461 791.51,664.061 C 797.369,666.991 801.76,672.362 801.76,679.692 C 801.76,684.571 799.811,688.962 799.811,694.821 C 799.811,700.192 801.76,706.542 807.129,709.471 L 831.551,668.46 L 831.551,668.46 z M 774.91,654.78 C 774.91,654.78 775.879,658.69 775.879,660.159 C 775.879,670.409 759.279,678.71 753.42,678.71 C 747.07,678.71 737.801,674.319 737.801,666.989 C 737.801,658.69 744.151,649.409 753.42,649.409 C 760.75,649.409 771,650.88 774.91,654.78 L 774.91,654.78 L 774.91,654.78 z M 804.689,725.101 L 805.669,728.031 C 805.669,728.031 849.128,725.101 858.399,725.101 C 871.588,725.101 892.579,714.839 892.579,697.271 C 892.579,686.521 875.979,661.13 865.729,661.13 C 855.469,661.13 846.198,671.39 846.198,679.691 C 846.198,686.521 853.028,693.851 857.428,696.291 C 857.428,682.621 867.678,678.711 874.998,678.711 C 878.908,678.711 880.857,681.641 880.857,686.522 C 880.857,699.221 851.078,713.381 841.798,714.84 L 804.689,725.101 L 804.689,725.101 z M 492.68,870.12 L 503.91,854.979 C 504.89,853.999 504.89,853.52 504.89,852.54 C 504.89,850.589 502.93,850.589 498.54,850.589 L 492.68,850.589 C 495.61,843.261 499.52,835.45 500.98,827.15 C 506.84,821.781 511.23,814.451 511.23,809.57 C 511.23,808.59 511.23,807.131 510.259,806.15 C 500.489,810.55 492.679,813.48 485.359,813.48 C 455.569,813.48 448.249,771.48 442.879,733.4 L 439.949,716.8 C 439.949,714.839 437.019,713.38 436.039,713.38 C 435.549,713.38 434.569,714.36 434.569,716.8 L 435.549,735.351 C 437.989,779.3 441.899,830.08 482.429,830.08 C 486.329,830.08 490.239,830.08 493.659,829.101 C 491.699,834.96 487.309,848.63 469.729,851.56 C 460.449,853.521 439.949,851.56 438.969,870.121 L 492.68,870.121 L 492.68,870.12 z M 585.449,870.12 L 595.709,854.979 C 596.68,853.999 596.68,852.54 596.68,851.559 C 596.68,850.588 595.709,849.61 593.75,849.61 C 593.27,849.61 591.311,849.61 589.359,850.589 L 586.429,851.56 C 591.31,842.281 596.679,831.05 597.659,816.89 C 599.608,813.48 601.569,811.521 601.569,799.32 C 596.678,803.22 591.309,804.201 584.479,804.201 C 559.569,804.201 529.788,779.781 525.399,774.41 C 524.419,772.461 523.438,770.512 520.508,770.512 C 519.537,771.481 518.069,773.442 518.069,775.391 L 519.538,779.301 L 518.069,832.031 C 518.069,839.361 519.049,846.681 519.049,852.541 C 517.088,857.91 511.229,864.262 511.229,867.191 C 511.229,869.14 512.208,870.121 513.188,870.121 L 520.508,870.121 C 526.367,870.121 528.319,870.121 529.787,867.191 L 541.017,853.521 C 541.017,852.541 539.068,852.541 536.628,852.541 C 530.767,852.541 527.347,791.021 527.347,786.621 L 533.697,792.971 C 541.017,800.291 553.228,823.731 578.127,823.731 C 582.037,823.731 585.447,822.751 590.338,821.782 C 590.338,834.962 572.758,850.591 565.918,852.542 C 558.598,854.981 550.299,860.841 550.299,870.122 L 585.449,870.122 L 585.449,870.12 z M 812.99,279.78 L 795.41,277.34 C 792.48,277.34 789.56,278.32 789.56,279.78 C 789.56,280.76 791.509,283.69 792.48,284.67 L 798.83,293.94 C 802.74,299.32 802.74,301.27 802.74,302.25 C 802.74,307.62 798.83,315.92 792.48,318.851 C 790.529,305.181 774.91,289.061 757.33,289.061 C 741.699,289.061 726.57,304.201 726.57,319.821 C 726.57,334.471 738.769,343.751 752.449,343.751 C 760.26,343.751 769.539,342.281 771.98,339.361 C 767.58,362.301 758.31,397.951 758.31,402.341 C 758.31,405.271 759.279,407.231 760.749,407.231 C 761.72,407.231 763.679,406.251 764.649,403.321 L 820.319,372.561 C 831.549,366.211 848.149,362.301 858.399,360.841 L 851.079,346.681 L 827.64,340.331 C 826.66,340.331 825.199,341.311 825.199,342.281 C 825.199,343.751 827.64,343.261 827.64,345.701 C 827.64,361.821 784.179,380.371 765.628,395.021 C 775.878,373.531 792.48,353.031 792.48,328.121 L 807.128,317.871 C 808.108,316.891 811.038,315.921 812.019,315.921 C 812.99,315.921 821.289,326.171 830.57,326.171 C 833.5,326.171 836.92,325.191 839.849,324.711 L 812.99,279.78 L 812.99,279.78 z M 768.561,333.98 C 764.651,335.45 760.26,337.4 754.401,337.4 C 745.12,337.4 738.77,329.1 738.77,319.82 C 738.77,309.57 745.12,299.32 751.471,299.32 C 760.26,299.32 771,317.87 771,326.17 C 771,329.1 771,332.03 768.561,333.98 L 768.561,333.98 L 768.561,333.98 z M 165.53,738.28 C 167,737.3 167.97,736.329 167.97,735.35 C 167.97,733.399 163.58,733.399 162.6,732.909 C 157.23,722.659 151.37,705.079 151.37,687.011 C 151.37,674.32 159.67,652.829 159.67,650.88 C 159.67,649.409 158.7,648.441 157.23,648.441 C 155.28,648.441 153.32,650.88 152.35,653.81 L 146,670.41 C 145.02,674.32 134.77,700.191 134.77,709.471 C 134.77,715.821 136.72,737.301 147.95,737.301 L 165.53,738.28 L 165.53,738.28 z M 246.1,300.29 L 240.73,309.57 C 237.8,292.97 228.52,278.32 209.97,278.32 C 193.36,278.32 180.18,289.06 180.18,305.18 C 180.18,313.48 183.11,322.75 188.48,330.08 C 181.16,331.05 170.9,333.01 167,339.36 L 166.51,313.48 C 167,302.25 174.81,292.97 174.81,283.69 C 174.81,279.78 169.93,270.51 165.53,268.07 L 138.68,315.43 L 148.44,333.98 L 157.23,319.82 C 159.67,330.08 159.67,339.36 163.58,347.66 C 164.56,354 168.95,361.82 175.79,364.26 C 178.23,343.26 194.34,339.36 212.9,336.43 L 215.34,333.01 C 207.04,331.05 199.71,329.1 194.83,329.1 C 192.39,325.19 191.41,322.75 191.41,319.82 C 191.41,307.62 205.08,296.87 216.31,296.87 C 229.5,296.87 231.94,306.64 234.87,319.82 C 232.91,326.17 228.52,331.05 228.52,337.4 C 228.52,347.66 234.87,360.84 243.17,365.23 C 250.49,370.12 259.77,365.23 263.68,371.58 C 264.65,371.09 264.65,368.16 264.65,366.21 C 264.65,357.91 262.7,354 254.4,354 C 248.05,354 239.75,354 239.75,346.68 C 239.75,338.38 252.45,319.82 260.75,319.82 C 265.63,319.82 266.61,323.73 269.05,329.1 C 266.61,333.98 265.63,338.38 265.63,343.26 C 265.63,350.59 270.02,355.96 273.93,358.89 C 273.93,346.68 283.21,329.1 297.86,329.1 C 297.86,336.43 303.72,351.56 305.67,352.539 C 305.67,343.749 311.04,330.079 324.22,330.079 C 328.62,330.079 332.52,333.979 332.52,338.379 C 332.52,364.009 280.52,367.919 251.71,395.259 L 251.47,395.999 C 274.91,386.719 288.58,382.81 300.79,380.859 C 323.25,377.439 341.8,368.159 341.8,348.629 C 341.8,333.979 330.57,315.429 314.95,315.429 C 308.11,315.429 302.74,318.849 299.81,323.729 C 296.39,321.779 290.53,318.849 286.14,318.849 C 282.23,318.849 277.84,320.799 273.93,325.189 C 270.02,317.869 264.65,307.619 254.4,307.619 L 250.49,307.619 L 246.1,300.29 L 246.1,300.29 z M 128.42,303.22 C 137.7,303.22 147.95,293.94 147.95,283.69 C 147.95,271.48 135.75,257.81 125.49,257.81 C 117.19,257.81 105.96,267.09 105.96,276.37 C 105.96,289.06 119.15,303.22 128.42,303.22 L 128.42,303.22 L 128.42,303.22 z M 111.33,283.69 C 115.24,277.34 124.52,270.51 131.84,270.51 C 134.77,270.51 141.12,272.46 141.12,275.39 C 136.72,283.69 128.42,289.06 121.59,289.06 C 119.15,289.06 112.31,286.62 111.33,283.69 L 111.33,283.69 L 111.33,283.69 z M 363.77,497.07 C 363.77,418.94 428.72,354 504.89,354 C 583.01,354 647.949,418.94 647.949,497.07 C 647.949,575.191 583.99,638.181 505.86,638.181 C 428.72,638.181 363.77,575.19 363.77,497.07 L 363.77,497.07 z"
   id="path5" />
</g>
</svg>